<?xml version="1.0" encoding="utf-8"?>
<!-- Generator: Adobe Illustrator 25.0.1, SVG Export Plug-In . SVG Version: 6.00 Build 0)  -->
<svg version="1.0" id="Layer_1" xmlns="http://www.w3.org/2000/svg" xmlns:xlink="http://www.w3.org/1999/xlink" x="0px" y="0px"
	 viewBox="0 0 508.7 336.8" style="enable-background:new 0 0 508.7 336.8;" xml:space="preserve">
<style type="text/css">
	.st0{fill:#387ED1;}
</style>
<g>
	<g>
		<g>
			<path class="st0" d="M98.1,156.2c2.9,3.8,5.3,8,7.2,12.5v-24.1H84.9C89.8,147.3,94.3,151.2,98.1,156.2z"/>
		</g>
		<g>
			<path class="st0" d="M68.7,147.2c-3.8,0-7.4,0.8-10.8,2.3v42.6h45.4C102.9,167.3,87.5,147.2,68.7,147.2"/>
		</g>
	</g>
	<g>
		<path class="st0" d="M132.5,184.8l25.4-30.7h-24.6v-6.7h34.4v5.6l-25.4,30.7h25.4v6.7h-35.2V184.8z"/>
		<path class="st0" d="M177.1,147.4H209v6.8h-24.3v11.1h21.6v6.8h-21.6v11.5h24.6v6.8h-32.1V147.4z"/>
		<path class="st0" d="M218.3,147.4h19.2c2.7,0,5.1,0.4,7.2,1.1c2.1,0.8,3.8,1.8,5.2,3.2c1.1,1.2,2,2.6,2.6,4.1
			c0.6,1.6,0.9,3.3,0.9,5.2v0.1c0,1.8-0.3,3.3-0.8,4.8c-0.5,1.4-1.2,2.7-2.1,3.7c-0.9,1.1-2,2-3.2,2.8c-1.2,0.8-2.6,1.3-4.1,1.8
			l11.6,16.3h-8.9l-10.6-15h-0.1h-9.4v15h-7.5L218.3,147.4L218.3,147.4z M236.9,168.7c2.7,0,4.9-0.6,6.5-1.9
			c1.6-1.3,2.4-3.1,2.4-5.3v-0.1c0-2.3-0.8-4.1-2.3-5.3c-1.6-1.2-3.8-1.8-6.6-1.8h-11v14.5H236.9L236.9,168.7z"/>
		<path class="st0" d="M283.2,191.2c-3.3,0-6.3-0.6-9.1-1.7c-2.7-1.2-5.1-2.8-7.1-4.8c-2-2-3.5-4.4-4.6-7c-1.1-2.7-1.7-5.5-1.7-8.6
			v-0.1c0-3,0.6-5.9,1.7-8.6c1.1-2.7,2.7-5,4.7-7.1c2-2,4.4-3.6,7.1-4.8c2.7-1.2,5.8-1.8,9.1-1.8c3.3,0,6.3,0.6,9.1,1.8
			c2.7,1.2,5.1,2.8,7.1,4.8c2,2,3.5,4.4,4.6,7c1.1,2.7,1.7,5.5,1.7,8.6v0.1c0,3-0.6,5.9-1.7,8.6c-1.1,2.7-2.7,5-4.7,7.1
			c-2,2-4.4,3.6-7.1,4.8C289.6,190.6,286.6,191.2,283.2,191.2z M283.4,184.2c2.1,0,4.1-0.4,5.8-1.2c1.8-0.8,3.3-1.9,4.6-3.3
			c1.3-1.4,2.3-3,3-4.8c0.7-1.8,1.1-3.8,1.1-5.9v-0.1c0-2.1-0.4-4.1-1.1-5.9c-0.7-1.9-1.7-3.5-3-4.9c-1.3-1.4-2.8-2.5-4.6-3.3
			c-1.8-0.8-3.8-1.2-5.9-1.2c-2.1,0-4.1,0.4-5.8,1.2c-1.8,0.8-3.3,1.9-4.6,3.3c-1.3,1.4-2.3,3-3,4.8c-0.7,1.8-1.1,3.8-1.1,5.9v0.1
			c0,2.1,0.4,4.1,1.1,5.9c0.7,1.9,1.7,3.5,3,4.9c1.3,1.4,2.8,2.5,4.6,3.3C279.3,183.8,281.2,184.2,283.4,184.2z"/>
		<path class="st0" d="M314.9,147.4h16c3.4,0,6.4,0.5,9.2,1.6c2.8,1.1,5.2,2.6,7.2,4.5c2,1.9,3.6,4.2,4.7,6.8
			c1.1,2.6,1.7,5.4,1.7,8.4v0.1c0,3-0.6,5.9-1.7,8.5c-1.1,2.6-2.7,4.9-4.7,6.8c-2,1.9-4.4,3.4-7.2,4.5c-2.8,1.1-5.9,1.7-9.2,1.7h-16
			V147.4z M330.9,183.6c2.3,0,4.3-0.4,6.1-1.1c1.8-0.7,3.4-1.7,4.7-3c1.3-1.3,2.3-2.8,3-4.6c0.7-1.8,1.1-3.7,1.1-5.8v-0.1
			c0-2.1-0.4-4.1-1.1-5.9c-0.7-1.8-1.7-3.4-3-4.7c-1.3-1.3-2.9-2.3-4.7-3.1c-1.8-0.7-3.9-1.1-6.1-1.1h-8.5v29.4L330.9,183.6
			L330.9,183.6z"/>
		<path class="st0" d="M363,147.4h7.5v17.9h20.6v-17.9h7.5v43h-7.5v-18.1h-20.6v18.1H363V147.4z"/>
		<path class="st0" d="M424.9,147.1h7l18.9,43.3h-8l-4.4-10.4h-20.3l-4.4,10.4H406L424.9,147.1z M435.7,173.3l-7.4-17.2l-7.4,17.2
			H435.7z"/>
	</g>
</g>
</svg>
